<svg width="75" height="75" viewBox="0 0 75 75" fill="none" xmlns="http://www.w3.org/2000/svg">
<path d="M64.5132 5.87342C58.2199 2.08577 49.9122 0 41.1208 0H33.8787C25.0875 0 16.7795 2.08577 10.4863 5.87342C3.72415 9.94317 0 15.5191 0 21.5741V24.462H74.9995V21.5741C74.9995 15.5191 71.2753 9.94317 64.5132 5.87342ZM6.15562 18.6862C8.65908 11.4447 20.3392 5.77577 33.8791 5.77577H41.1211C54.661 5.77577 66.3411 11.4447 68.8446 18.6862H6.15562ZM0 44.6772H74.9995V50.453H0V44.6772ZM59.9996 30.2448C55.6155 30.2448 53.3186 31.3503 51.292 32.3257C49.5172 33.18 48.1152 33.8547 44.9992 33.8547C41.8831 33.8547 40.4815 33.18 38.7066 32.3257C36.6802 31.3511 34.3834 30.2448 29.9994 30.2448C25.6155 30.2448 23.3186 31.3503 21.2922 32.3257C19.5176 33.18 18.1159 33.8547 15.0001 33.8547C11.8842 33.8547 10.4824 33.18 8.70772 32.3257C6.68132 31.3511 4.38446 30.2448 0.000530365 30.2448V36.0206C3.11637 36.0206 4.51819 36.6953 6.29288 37.5495C8.31928 38.5242 10.6161 39.6304 15.0001 39.6304C19.384 39.6304 21.6807 38.5249 23.7071 37.5495C25.4818 36.6953 26.8836 36.0206 29.9994 36.0206C33.1153 36.0206 34.5171 36.6953 36.2918 37.5495C38.3184 38.5242 40.615 39.6304 44.9992 39.6304C49.3833 39.6304 51.6801 38.5249 53.7067 37.5495C55.4816 36.6953 56.8834 36.0206 59.9996 36.0206C63.1158 36.0206 64.5176 36.6953 66.2925 37.5495C68.319 38.5242 70.6159 39.6304 75 39.6304V33.8547C71.8838 33.8547 70.482 33.18 68.7071 32.3257C66.68 31.3503 64.3832 30.2448 59.9996 30.2448ZM0 70.6682C0.0013108 71.8166 0.448998 72.9177 1.24485 73.7298C2.04071 74.5418 3.11974 74.9987 4.24525 75H70.7542C71.8797 74.9987 72.9588 74.5418 73.7546 73.7298C74.5505 72.9177 74.9982 71.8166 74.9995 70.6682V56.2287H0V70.6682ZM5.66034 62.0045H69.3391V69.2242H5.66034V62.0045Z" fill="#E3001B"/>
</svg>
