<svg width="64" height="75" viewBox="0 0 64 75" fill="none" xmlns="http://www.w3.org/2000/svg">
<path d="M62.3837 53.0255H57.4631C56.9864 53.0255 56.5352 53.3037 56.2798 53.7641C55.1986 55.692 53.9387 57.4761 52.4915 59.1066C49.9972 61.917 47.0942 64.1231 43.8678 65.6577C40.5222 67.2499 36.9722 68.0556 33.3116 68.0556C29.6425 68.0556 26.0925 67.2499 22.7554 65.6577C19.529 64.1231 16.626 61.917 14.1317 59.1066C11.6374 56.2963 9.67939 53.0255 8.3173 49.3903C6.90414 45.6304 6.18904 41.6307 6.18904 37.4967C6.18904 33.3627 6.90414 29.3725 8.3173 25.603C9.67939 21.9678 11.6374 18.697 14.1317 15.8867C16.626 13.0763 19.529 10.8703 22.7554 9.3356C26.0925 7.74338 29.651 6.93769 33.3116 6.93769C36.9807 6.93769 40.5307 7.74338 43.8678 9.3356C47.0942 10.8703 49.9972 13.0763 52.4915 15.8867C53.9387 17.5173 55.1986 19.3013 56.2798 21.2292C56.5352 21.6896 56.9864 21.9678 57.4631 21.9678H62.3837C62.9711 21.9678 63.3456 21.2772 63.0817 20.6921C57.5312 8.25174 46.277 0.165984 33.7117 0.0029257C15.315 -0.256049 0.0341103 16.7116 5.81595e-05 37.4199C-0.033994 58.1667 14.8894 75 33.3031 75C46.0301 75 57.4716 66.8855 63.0817 54.3012C63.3456 53.7161 62.9625 53.0255 62.3837 53.0255Z" fill="#E3001B"/>
</svg>
