<svg width="50" height="50" viewBox="0 0 50 50" fill="none" xmlns="http://www.w3.org/2000/svg">
<circle cx="25" cy="25" r="25" fill="#FAAB34"/>
<path d="M25.247 21.4984C23.1812 21.4984 21.4954 23.1842 21.4954 25.25C21.4954 27.3158 23.1812 29.0016 25.247 29.0016C27.3127 29.0016 28.9985 27.3158 28.9985 25.25C28.9985 23.1842 27.3127 21.4984 25.247 21.4984ZM36.4987 25.25C36.4987 23.6965 36.5128 22.157 36.4256 20.6062C36.3383 18.805 35.9274 17.2064 34.6103 15.8893C33.2904 14.5693 31.6947 14.1613 29.8935 14.074C28.3399 13.9868 26.8005 14.0008 25.2498 14.0008C23.6963 14.0008 22.1568 13.9868 20.6061 14.074C18.8049 14.1613 17.2064 14.5722 15.8893 15.8893C14.5693 17.2093 14.1613 18.805 14.074 20.6062C13.9868 22.1598 14.0008 23.6993 14.0008 25.25C14.0008 26.8007 13.9868 28.343 14.074 29.8938C14.1613 31.695 14.5722 33.2936 15.8893 34.6107C17.2092 35.9307 18.8049 36.3387 20.6061 36.426C22.1596 36.5132 23.6991 36.4992 25.2498 36.4992C26.8033 36.4992 28.3428 36.5132 29.8935 36.426C31.6947 36.3387 33.2932 35.9278 34.6103 34.6107C35.9302 33.2907 36.3383 31.695 36.4256 29.8938C36.5156 28.343 36.4987 26.8035 36.4987 25.25V25.25ZM25.247 31.0223C22.0527 31.0223 19.4747 28.4443 19.4747 25.25C19.4747 22.0557 22.0527 19.4777 25.247 19.4777C28.4413 19.4777 31.0192 22.0557 31.0192 25.25C31.0192 28.4443 28.4413 31.0223 25.247 31.0223ZM31.2556 20.5894C30.5098 20.5894 29.9075 19.9871 29.9075 19.2413C29.9075 18.4954 30.5098 17.8932 31.2556 17.8932C32.0014 17.8932 32.6037 18.4954 32.6037 19.2413C32.6039 19.4183 32.5692 19.5938 32.5015 19.7574C32.4339 19.9211 32.3346 20.0698 32.2093 20.195C32.0841 20.3202 31.9354 20.4195 31.7718 20.4872C31.6081 20.5549 31.4327 20.5896 31.2556 20.5894V20.5894Z" fill="white"/>
</svg>
