<svg width="223" height="73" viewBox="0 0 223 73" fill="none" xmlns="http://www.w3.org/2000/svg">
<path d="M35.9742 29.1406V59H29.8219L17.8248 38.9844V59H11.6725V29.1406H17.8248L29.8424 49.1768V29.1406H35.9742Z" fill="white"/>
<path d="M25.8955 22.6445V30.3145L21.6709 30.3555V23.916C21.6709 22.7813 21.5273 21.8516 21.2402 21.127C20.9395 20.4023 20.5088 19.8623 19.9482 19.5068C19.374 19.1377 18.6768 18.9531 17.8564 18.9531C16.9268 18.9531 16.1748 19.1309 15.6006 19.4863C15.0264 19.8281 14.6094 20.3682 14.3496 21.1064C14.0898 21.8311 13.96 22.7676 13.96 23.916V28.1816H39V34.334H9.14062V23.916C9.14062 22.1797 9.30469 20.6279 9.63281 19.2607C9.96094 17.8799 10.46 16.7109 11.1299 15.7539C11.7998 14.7969 12.6475 14.0654 13.6729 13.5596C14.6846 13.0537 15.8877 12.8008 17.2822 12.8008C18.5127 12.8008 19.6475 13.0811 20.6865 13.6416C21.7256 14.1885 22.5732 15.0566 23.2295 16.2461C23.8857 17.4219 24.248 18.96 24.3164 20.8604L25.8955 22.6445ZM39 22.9111V31.9961L34.2012 29.5967V22.9111C34.2012 21.8311 34.0303 20.9492 33.6885 20.2656C33.333 19.582 32.8545 19.0762 32.2529 18.748C31.6514 18.4199 30.9609 18.2559 30.1816 18.2559C29.3066 18.2559 28.5478 18.4063 27.9053 18.707C27.2627 18.9941 26.7705 19.459 26.4287 20.1016C26.0732 20.7441 25.8955 21.5918 25.8955 22.6445V28.5713L21.6709 28.5303V21.1475L23.332 19.7324C23.3047 17.9141 23.626 16.4512 24.2959 15.3438C24.9521 14.2227 25.8066 13.4092 26.8594 12.9033C27.9121 12.3838 29.04 12.124 30.2432 12.124C32.1572 12.124 33.7705 12.541 35.083 13.375C36.3818 14.209 37.3594 15.4326 38.0156 17.0459C38.6719 18.6455 39 20.6006 39 22.9111Z" fill="white"/>
<path d="M9.00647 10C9.00647 4.47715 13.4836 0 19.0065 0H29.0281C34.5509 0 39.0281 4.47715 39.0281 10H9.00647Z" fill="white"/>
<path d="M39.0281 63C39.0281 68.5228 34.551 73 29.0281 73H19.0065C13.4836 73 9.00649 68.5228 9.00649 63H39.0281Z" fill="white"/>
</svg>
