<svg width="75" height="75" viewBox="0 0 75 75" fill="none" xmlns="http://www.w3.org/2000/svg">
<path d="M75 11.5904H64.3912C57.0412 3.89423 48.0487 0 37.5 0C26.9513 0 17.955 3.89423 10.6087 11.5904H0C1.605 14.0135 3.10125 19.3212 3.72375 23.3596C1.31932 28.2841 0.0132264 34.2718 0 40.4308C0 56.3365 8.41125 69.2769 18.75 69.2769C23.5318 69.264 28.1274 66.4239 31.5863 61.3442L37.5 75L43.4137 61.35C46.872 66.4318 51.4677 69.274 56.25 69.2885C66.5887 69.2885 75 56.3481 75 40.4423C75 34.0269 73.5862 28.1538 71.2762 23.3654C71.8987 19.3269 73.395 14.0192 75 11.5962V11.5904ZM18.75 60.0519C11.7188 60.0519 6 51.2538 6 40.4365C6 29.6192 11.7188 20.8212 18.75 20.8212C25.7812 20.8212 31.5 29.6192 31.5 40.4365C31.5 51.2538 25.7812 60.0519 18.75 60.0519ZM37.5 40.4365C37.4937 33.7816 35.9942 27.3341 33.2551 22.1835C30.5159 17.0328 26.705 13.4948 22.4663 12.1673C26.9813 9.83077 31.9875 8.65385 37.5 8.65385C43.0125 8.65385 48.0187 9.83077 52.5337 12.1731C48.2963 13.5002 44.4863 17.0365 41.7473 22.1848C39.0083 27.3331 37.5081 33.7779 37.5 40.4308V40.4365ZM56.25 60.0519C49.2188 60.0519 43.5 51.2538 43.5 40.4365C43.5 29.6192 49.2188 20.8212 56.25 20.8212C63.2812 20.8212 69 29.6192 69 40.4365C69 51.2538 63.2812 60.0519 56.25 60.0519V60.0519ZM18.75 28.0385C14.3063 28.0385 10.6875 33.6 10.6875 40.4423C10.6875 47.2846 14.3063 52.8462 18.75 52.8462C23.1937 52.8462 26.8125 47.2846 26.8125 40.4423C26.8125 33.6 23.1937 28.0385 18.75 28.0385ZM18.75 44.1404C18.1035 44.1404 17.4835 43.7453 17.0264 43.042C16.5693 42.3388 16.3125 41.3849 16.3125 40.3904C16.3125 39.3958 16.5693 38.442 17.0264 37.7387C17.4835 37.0355 18.1035 36.6404 18.75 36.6404C19.3965 36.6404 20.0165 37.0355 20.4736 37.7387C20.9307 38.442 21.1875 39.3958 21.1875 40.3904C21.1875 41.3849 20.9307 42.3388 20.4736 43.042C20.0165 43.7453 19.3965 44.1404 18.75 44.1404ZM56.25 28.0385C51.8063 28.0385 48.1875 33.6 48.1875 40.4423C48.1875 47.2846 51.8063 52.8462 56.25 52.8462C60.6937 52.8462 64.3125 47.2846 64.3125 40.4423C64.3125 33.6 60.6937 28.0385 56.25 28.0385V28.0385ZM56.25 44.1404C55.6035 44.1404 54.9835 43.7453 54.5264 43.042C54.0693 42.3388 53.8125 41.3849 53.8125 40.3904C53.8125 39.3958 54.0693 38.442 54.5264 37.7387C54.9835 37.0355 55.6035 36.6404 56.25 36.6404C56.8965 36.6404 57.5165 37.0355 57.9736 37.7387C58.4307 38.442 58.6875 39.3958 58.6875 40.3904C58.6875 41.3849 58.4307 42.3388 57.9736 43.042C57.5165 43.7453 56.8965 44.1404 56.25 44.1404V44.1404Z" fill="white"/>
</svg>
