<svg width="68" height="75" viewBox="0 0 68 75" fill="none" xmlns="http://www.w3.org/2000/svg">
<path d="M67.783 36.1533L59.7473 12.292C59.5411 11.6787 59.1979 11.156 58.7603 10.7887C58.3226 10.4215 57.8099 10.2259 57.2857 10.2263H49.25V3.40876C49.25 2.5047 48.9678 1.63767 48.4654 0.998404C47.9631 0.359137 47.2818 0 46.5714 0H3.71421V6.81752H43.8928V49.6179C42.6723 50.5199 41.6041 51.7204 40.75 53.1502C39.8958 54.5801 39.2725 56.211 38.916 57.9489H22.0839C21.4319 54.7356 19.8815 51.9352 17.7231 50.0727C15.5648 48.2101 12.9468 47.4132 10.3598 47.8313C7.77275 48.2495 5.39439 49.854 3.67049 52.3442C1.94659 54.8343 0.995506 58.039 0.995506 61.3577C0.995506 64.6764 1.94659 67.8811 3.67049 70.3713C5.39439 72.8614 7.77275 74.4659 10.3598 74.8841C12.9468 75.3022 15.5648 74.5053 17.7231 72.6428C19.8815 70.7802 21.4319 67.9798 22.0839 64.7665H38.916C39.4987 67.692 40.8313 70.2867 42.7029 72.1402C44.5746 73.9937 46.8784 75 49.25 75C51.6215 75 53.9254 73.9937 55.797 72.1402C57.6687 70.2867 59.0012 67.692 59.5839 64.7665H65.3214C66.0318 64.7665 66.7131 64.4073 67.2155 63.7681C67.7178 63.1288 68 62.2618 68 61.3577V37.4964C68.0001 37.0346 67.9263 36.5776 67.783 36.1533ZM11.7499 68.1752C10.6904 68.1752 9.65464 67.7754 8.77367 67.0263C7.89269 66.2772 7.20605 65.2124 6.80058 63.9667C6.39511 62.7209 6.28902 61.3501 6.49572 60.0277C6.70243 58.7052 7.21265 57.4904 7.96186 56.537C8.71107 55.5835 9.66562 54.9342 10.7048 54.6712C11.744 54.4081 12.8211 54.5431 13.8 55.0591C14.7789 55.5751 15.6156 56.449 16.2042 57.5701C16.7929 58.6912 17.1071 60.0093 17.1071 61.3577C17.1057 63.1653 16.5408 64.8983 15.5364 66.1764C14.5321 67.4546 13.1703 68.1734 11.7499 68.1752ZM49.25 17.0438H55.5178L61.2607 34.0876H49.25V17.0438ZM49.25 68.1752C48.1904 68.1752 47.1547 67.7754 46.2737 67.0263C45.3927 66.2772 44.7061 65.2124 44.3006 63.9667C43.8951 62.7209 43.7891 61.3501 43.9958 60.0277C44.2025 58.7052 44.7127 57.4904 45.4619 56.537C46.2111 55.5835 47.1657 54.9342 48.2048 54.6712C49.244 54.4081 50.3212 54.5431 51.3001 55.0591C52.279 55.5751 53.1156 56.449 53.7043 57.5701C54.2929 58.6912 54.6071 60.0093 54.6071 61.3577C54.6057 63.1653 54.0408 64.8983 53.0365 66.1764C52.0321 67.4546 50.6703 68.1734 49.25 68.1752ZM62.6429 57.9489H59.5839C58.9939 55.0291 57.6592 52.441 55.789 50.5903C53.9189 48.7396 51.619 47.731 49.25 47.7227V40.9051H62.6429V57.9489Z" fill="#E3001B"/>
</svg>
