<svg width="50" height="50" viewBox="0 0 50 50" fill="none" xmlns="http://www.w3.org/2000/svg">
<circle cx="25" cy="25" r="25" fill="#FAAB34"/>
<path d="M36.5 16.6689C35.6726 17.1199 34.7837 17.4247 33.8493 17.5624C34.8134 16.8527 35.5348 15.7358 35.8787 14.42C34.9728 15.0818 33.9814 15.5477 32.9475 15.7974C32.2523 14.8842 31.3314 14.2789 30.3278 14.0756C29.3243 13.8722 28.2942 14.082 27.3976 14.6726C26.5009 15.2631 25.7879 16.2013 25.3691 17.3414C24.9503 18.4815 24.8492 19.7599 25.0815 20.9779C23.246 20.8645 21.4504 20.2777 19.8112 19.2554C18.172 18.2331 16.7259 16.7983 15.5667 15.0441C15.1703 15.8851 14.9424 16.8603 14.9424 17.8988C14.9419 18.8338 15.1291 19.7544 15.4873 20.579C15.8454 21.4036 16.3635 22.1067 16.9956 22.6259C16.2626 22.5972 15.5457 22.3536 14.9047 21.9153V21.9884C14.9046 23.2997 15.2734 24.5706 15.9483 25.5855C16.6233 26.6004 17.563 27.2968 18.6078 27.5566C17.9278 27.7829 17.2149 27.8163 16.5229 27.6541C16.8177 28.7824 17.3919 29.769 18.1652 30.4759C18.9385 31.1827 19.8722 31.5744 20.8354 31.5962C19.2002 33.1752 17.1808 34.0317 15.1019 34.028C14.7337 34.0281 14.3657 34.0016 14 33.9487C16.1102 35.6177 18.5665 36.5034 21.0752 36.5C29.5675 36.5 34.21 27.8479 34.21 20.344C34.21 20.1003 34.205 19.854 34.1961 19.6102C35.0991 18.8069 35.8786 17.8122 36.498 16.6726L36.5 16.6689Z" fill="white"/>
</svg>
